#!OML:ASF Y:\EmotionMaleHayes\Project 1\Capture day 1\Session 1\Male1.ASF
:FULLY-SPECIFIED
:DEGREES
690
root 5.54601 16.5692 -11.3229 361.525 -8.67667 357.629
lowerback 9.74327 2.35879 6.64771
upperback 3.74611 3.74307 1.2215
thorax -1.20001 1.90349 -2.8427
lowerneck -20.7921 2.68718 5.22858
upperneck 28.1351 3.40867 -4.38568
head 13.0658 1.46188 -2.00912
rclavicle 5.71506e-014 2.3059e-014
rhumerus -19.5288 16.9771 -88.6803
rradius 54.1012
rwrist -2.66961
rhand -12.7861 -28.0153
rfingers 7.12502
rthumb 13.2993 -57.5709
lclavicle 5.71506e-014 2.3059e-014
lhumerus -39.0535 -0.0943287 85.4475
lradius 26.6556
lwrist -14.2907
lhand -8.05786 -22.7747
lfingers 7.12502
lthumb 17.8532 6.42579
rfemur 19.5677 -0.890182 26.1418
rtibia 5.79835
rfoot -24.8365 13.7016
rtoes 9.44913
lfemur -22.5768 10.3292 -10.1809
ltibia 5.69365
lfoot -8.22434 10.2226
ltoes -0.247019
691
root 5.57856 16.5426 -11.186 361.523 -8.76884 357.666
lowerback 9.82083 2.39663 6.47824
upperback 3.65899 3.78709 1.15574
thorax -1.33675 1.91845 -2.82829
lowerneck -20.9234 2.70695 5.40896
upperneck 28.2942 3.38987 -4.44487
head 13.163 1.46388 -2.06858
rclavicle 2.20651e-014 1.27222e-014
rhumerus -19.7874 16.5562 -88.5866
rradius 53.4886
rwrist -2.87071
rhand -13.168 -28.1068
rfingers 7.12502
rthumb 12.9313 -57.6861
lclavicle 2.20651e-014 1.27222e-014
lhumerus -38.7972 -0.314389 85.2312
lradius 26.8174
lwrist -14.0078
lhand -8.46714 -22.6744
lfingers 7.12502
lthumb 17.4593 6.56152
rfemur 19.961 -0.526218 26.063
rtibia 6.02766
rfoot -24.8639 13.5093
rtoes 8.67505
lfemur -22.8085 9.83304 -10.5776
ltibia 6.2023
lfoot -7.92736 10.6842
ltoes -4.48559
692
root 5.6069 16.5163 -11.0458 361.52 -8.89138 357.492
lowerback 9.91266 2.37788 6.44559
upperback 3.56838 3.77059 1.13691
thorax -1.48436 1.90341 -2.83642
lowerneck -20.6931 2.81185 5.48417
upperneck 28.1875 3.49824 -4.36866
head 13.078 1.53231 -2.03177
rclavicle 1.56046e-014 -1.31198e-014
rhumerus -20.1125 16.2167 -88.663
rradius 52.874
rwrist -3.17417
rhand -13.317 -28.0907
rfingers 7.12502
rthumb 12.7877 -57.679
lclavicle 1.56046e-014 -1.31198e-014
lhumerus -38.5268 0.164361 84.6514
lradius 26.9022
lwrist -14.2802
lhand -8.72165 -22.8366
lfingers 7.12502
lthumb 17.2144 6.42088
rfemur 20.3472 0.144269 26.525
rtibia 6.34124
rfoot -25.2503 12.5009
rtoes 5.80836
lfemur -23.2735 10.5017 -11.0248
ltibia 7.42943
lfoot -8.86138 10.5028
ltoes 3.85864
693
root 5.626 16.4887 -10.8965 361.507 -9.21545 357.134
lowerback 9.90834 2.39634 6.43254
upperback 3.56696 3.79541 1.23365
thorax -1.48886 1.91461 -2.7312
lowerneck -20.6105 2.91526 5.48092
upperneck 28.073 3.64436 -4.35484
head 13.0226 1.59818 -1.99904
rclavicle 1.50082e-014 -7.15625e-015
rhumerus -20.2708 15.8829 -88.653
rradius 52.105
rwrist -3.28953
rhand -13.3725 -28.203
rfingers 7.12502
rthumb 12.7341 -57.7947
lclavicle 1.50082e-014 -7.15625e-015
lhumerus -38.2186 0.636327 84.1929
lradius 27.0077
lwrist -14.472
lhand -9.11176 -23.1339
lfingers 7.12502
lthumb 16.8389 6.15603
rfemur 20.7484 0.410124 26.8836
rtibia 6.74926
rfoot -25.5672 12.2031
rtoes 4.53761
lfemur -23.944 13.1298 -11.634
ltibia 9.38406
lfoot -8.03103 8.94725
ltoes 0.849415
694
root 5.65594 16.4591 -10.7427 361.533 -9.27855 356.909
lowerback 9.7946 2.34869 6.54226
upperback 3.55223 3.73416 1.2239
thorax -1.43911 1.8862 -2.79055
lowerneck -20.6811 2.96305 5.39893
upperneck 28.0365 3.68307 -4.18714
head 13.0191 1.62787 -1.91185
rclavicle 9.14409e-015 2.78299e-015
rhumerus -20.4106 15.3992 -88.6185
rradius 51.1643
rwrist -3.20812
rhand -13.4329 -28.2643
rfingers 7.12502
rthumb 12.6759 -57.8596
lclavicle 9.14409e-015 2.78299e-015
lhumerus -37.9301 0.643224 83.8746
lradius 27.2169
lwrist -14.0753
lhand -9.33311 -23.3467
lfingers 7.12502
lthumb 16.6258 5.96117
rfemur 21.108 0.407943 26.8357
rtibia 7.16109
rfoot -25.4289 12.8176
rtoes 6.88615
lfemur -23.9658 11.8885 -11.3592
ltibia 10.5148
lfoot -8.88418 9.38795
ltoes 5.21001
